<svg xmlns="http://www.w3.org/2000/svg" aria-hidden="true" style="position:absolute;width:0;height:0;overflow:hidden">
    <defs>
        <symbol id="icon-arrow-up" viewBox="0 0 32 32">
            <path 
                fill="none" 
                stroke="#fff" 
                stroke-linecap="round" 
                stroke-linejoin="round" 
                stroke-width=".64" 
                d="m12.8 14.72 3.84 4.48 3.84-4.48" 
                style="stroke:var(--color1, #fff)"
            />
        </symbol>
        <symbol id="icon-arrow-right" viewBox="0 0 32 32">
            <path 
                fill="#fff" 
                d="M22.772 15.333 15.52 8.081c-.13-.13-.198-.283-.204-.459s.066-.337.213-.484c.146-.142.303-.215.471-.217s.324.071.472.217l8.107 8.107c.116.117.198.236.245.357s.071.253.071.397c0 .144-.024.276-.071.397s-.129.24-.245.356l-8.107 8.108c-.124.124-.276.191-.455.2s-.343-.058-.489-.2c-.147-.147-.22-.305-.22-.475s.073-.329.22-.476l7.245-7.244H7.333c-.19 0-.349-.064-.476-.191s-.191-.286-.191-.476.064-.349.191-.476.286-.191.476-.191h15.439z" 
                style="fill:var(--color1, #fff)"
            />
        </symbol>
        <symbol id="icon-arrow-left" viewBox="0 0 32 32">
            <path 
                fill="#fff" 
                d="m9.228 16.667 7.252 7.252c.13.13.198.283.204.459s-.066.337-.213.484c-.146.142-.303.215-.471.217s-.324-.071-.472-.217l-8.107-8.107c-.116-.117-.198-.236-.245-.357s-.071-.253-.071-.397c0-.144.024-.276.071-.397s.129-.24.245-.356l8.107-8.108c.124-.124.276-.191.455-.2s.343.058.489.2c.147.147.22.305.22.475s-.073.329-.22.476l-7.245 7.244h15.44c.19 0 .349.064.476.191s.191.286.191.476-.064.349-.191.476-.286.191-.476.191H9.228z" 
                style="fill:var(--color1, #fff)"
            />
        </symbol>
        <symbol id="icon-google-play" viewBox="0 0 29 32">
            <path 
                fill="#fff" 
                d="m5.019.813 17.562 10.061-3.764 3.751L5.019.813zM1.381 0l16.121 16-16.12 16a2.293 2.293 0 0 1-1.381-2.191v.004V2.188L0 2.101A2.29 2.29 0 0 1 1.368.006l.013-.007zM28.04 14.125c.554.409.909 1.06.909 1.792l-.001.087V16c.034.358-.026.718-.174 1.046s-.378.612-.668.825l-.005.004-3.764 2.124L20.261 16l4.077-4.063 3.703 2.188zM5.019 31.187l13.799-13.812 3.764 3.751L5.018 31.187z" 
                style="fill:var(--color1, #fff)"
            />
        </symbol>
        <symbol id="icon-close" viewBox="0 0 32 32">
            <path 
                fill="#fff" 
                d="m8.533 25.333-1.867-1.867 7.467-7.467-7.467-7.467 1.867-1.867L16 14.132l7.467-7.467 1.867 1.867-7.467 7.467 7.467 7.467-1.867 1.867L16 17.866l-7.467 7.467z" 
                style="fill:var(--color1, #fff)"
            />
        </symbol>
        <symbol id="icon-burger_menu" viewBox="0 0 32 32">
            <path 
                fill="#fff" 
                d="M4 24v-2.667h24V24H4zm0-6.667v-2.667h24v2.667H4zm0-6.666V8h24v2.667H4z" 
                style="fill:var(--color1, #fff)"/>
        </symbol>
    </defs>
</svg>